<svg width="100%" viewBox="0 0 690 860" role="img" xmlns="http://www.w3.org/2000/svg" style="">
<title style="fill:rgb(0, 0, 0);stroke:none;color:rgb(0, 0, 0);stroke-width:1px;stroke-linecap:butt;stroke-linejoin:miter;opacity:1;font-family:&quot;Anthropic Sans&quot;, -apple-system, &quot;system-ui&quot;, &quot;Segoe UI&quot;, sans-serif;font-size:16px;font-weight:400;text-anchor:start;dominant-baseline:auto">Stakemate — how it works, portrait</title>
<desc style="fill:rgb(0, 0, 0);stroke:none;color:rgb(0, 0, 0);stroke-width:1px;stroke-linecap:butt;stroke-linejoin:miter;opacity:1;font-family:&quot;Anthropic Sans&quot;, -apple-system, &quot;system-ui&quot;, &quot;Segoe UI&quot;, sans-serif;font-size:16px;font-weight:400;text-anchor:start;dominant-baseline:auto">Four-step flow: connect Lichess, challenge anyone, play on Lichess, win their Crowns.</desc>

<defs>
<symbol id="ic-knight" viewBox="0 0 120 120">
<g transform="translate(-1,-7) scale(2.7)" fill-rule="evenodd" stroke="#161512" stroke-width="0.7" stroke-linecap="round" stroke-linejoin="round">
<path fill="#E8E6E3" d="M22 10c10.5 1 16.5 8 16 29H15c0-9 10-6.5 8-21"/>
<path fill="#E8E6E3" d="M24 18c.38 2.91-5.55 7.37-8 9-3 2-2.82 4.34-5 4-1.042-.94 1.41-3.04 0-3-1 0 .19 1.23-1 2-1 0-4.003 1-4-4 0-2 6-12 6-12s1.89-1.9 2-3.5c-.73-.994-.5-2-.5-3 1-1 3 2.5 3 2.5h2s.78-1.992 2.5-3c1 0 1 3 1 3"/>
<path fill="#161512" d="M9.5 25.5a.5.5 0 1 1-1 0 .5.5 0 1 1 1 0m5.433-9.75a.5 1.5 30 1 1-.866-.5.5 1.5 30 1 1 .866.5"/>
</g>
</symbol>
<symbol id="ic-challenge" viewBox="0 0 120 120">
<line x1="20" y1="108" x2="100" y2="108" stroke="#403d38" stroke-width="1.5"/>
<circle cx="42" cy="54" r="9" fill="#E8E6E3"/>
<path d="M35 63 C31 75 27 95 26 102 L58 102 C57 95 53 75 49 63 Z" fill="#E8E6E3"/>
<rect x="24" y="102" width="36" height="6" rx="2" fill="#E8E6E3"/>
<circle cx="78" cy="54" r="9" fill="#E8E6E3"/>
<path d="M71 63 C67 75 63 95 62 102 L94 102 C93 95 89 75 85 63 Z" fill="#E8E6E3"/>
<rect x="60" y="102" width="36" height="6" rx="2" fill="#E8E6E3"/>
<rect x="40" y="32" width="40" height="8" rx="2" fill="#FF491B"/>
<path d="M40 32 C41 24 44 18 47 17 C49 22 52 26 54 27 C56 26 58 16 60 12 C62 16 64 26 66 27 C68 26 71 22 73 17 C76 18 79 24 80 32 Z" fill="#FF491B"/>
<circle cx="47" cy="16" r="2.6" fill="#FF491B"/><circle cx="60" cy="11" r="2.6" fill="#FF491B"/><circle cx="73" cy="16" r="2.6" fill="#FF491B"/>
</symbol>
<symbol id="ic-play" viewBox="0 0 120 120">
<rect x="15" y="15" width="18" height="18" fill="#3C3934"/><rect x="33" y="15" width="18" height="18" fill="#211F1C"/><rect x="51" y="15" width="18" height="18" fill="#3C3934"/><rect x="69" y="15" width="18" height="18" fill="#211F1C"/><rect x="87" y="15" width="18" height="18" fill="#3C3934"/>
<rect x="15" y="33" width="18" height="18" fill="#211F1C"/><rect x="33" y="33" width="18" height="18" fill="#3C3934"/><rect x="51" y="33" width="18" height="18" fill="#211F1C"/><rect x="69" y="33" width="18" height="18" fill="#3C3934"/><rect x="87" y="33" width="18" height="18" fill="#211F1C"/>
<rect x="15" y="51" width="18" height="18" fill="#3C3934"/><rect x="33" y="51" width="18" height="18" fill="#211F1C"/><rect x="51" y="51" width="18" height="18" fill="#3C3934"/><rect x="69" y="51" width="18" height="18" fill="#211F1C"/><rect x="87" y="51" width="18" height="18" fill="#3C3934"/>
<rect x="15" y="69" width="18" height="18" fill="#211F1C"/><rect x="33" y="69" width="18" height="18" fill="#3C3934"/><rect x="51" y="69" width="18" height="18" fill="#211F1C"/><rect x="69" y="69" width="18" height="18" fill="#3C3934"/><rect x="87" y="69" width="18" height="18" fill="#211F1C"/>
<rect x="15" y="87" width="18" height="18" fill="#3C3934"/><rect x="33" y="87" width="18" height="18" fill="#211F1C"/><rect x="51" y="87" width="18" height="18" fill="#3C3934"/><rect x="69" y="87" width="18" height="18" fill="#211F1C"/><rect x="87" y="87" width="18" height="18" fill="#3C3934"/>
<rect x="69" y="33" width="18" height="18" fill="#FF491B"/>
<rect x="15" y="15" width="90" height="90" fill="none" stroke="#403d38" stroke-width="1.5"/>
<rect x="51" y="69" width="18" height="18" fill="none" stroke="#949494" stroke-width="1.3"/>
<path d="M60 78 L60 42 L78 42" fill="none" stroke="#E8E6E3" stroke-width="2.5" stroke-linecap="round" stroke-linejoin="round"/>
<path d="M73 37 L80 42 L73 47" fill="none" stroke="#E8E6E3" stroke-width="2.5" stroke-linecap="round" stroke-linejoin="round"/>
<circle cx="60" cy="78" r="2.6" fill="#E8E6E3"/>
</symbol>
<symbol id="ic-win" viewBox="0 0 120 120">
<rect x="40" y="26" width="40" height="8" rx="2" fill="#FF491B"/>
<path d="M40 26 C41 18 44 12 47 11 C49 16 52 20 54 21 C56 20 58 10 60 6 C62 10 64 20 66 21 C68 20 71 16 73 11 C76 12 79 18 80 26 Z" fill="#FF491B"/>
<circle cx="47" cy="10" r="2.6" fill="#FF491B"/><circle cx="60" cy="5" r="2.6" fill="#FF491B"/><circle cx="73" cy="10" r="2.6" fill="#FF491B"/>
<line x1="18" y1="106" x2="110" y2="106" stroke="#403d38" stroke-width="1.5"/>
<rect x="24" y="84" width="14" height="22" rx="1" fill="#629924"/>
<rect x="46" y="70" width="14" height="36" rx="1" fill="#629924"/>
<rect x="68" y="56" width="14" height="50" rx="1" fill="#629924"/>
<rect x="90" y="42" width="14" height="64" rx="1" fill="#629924"/>
</symbol>
</defs>

<rect x="0" y="0" width="680" height="850" fill="#161512" style="fill:rgb(22, 21, 18);stroke:none;color:rgb(0, 0, 0);stroke-width:1px;stroke-linecap:butt;stroke-linejoin:miter;opacity:1;font-family:&quot;Anthropic Sans&quot;, -apple-system, &quot;system-ui&quot;, &quot;Segoe UI&quot;, sans-serif;font-size:16px;font-weight:400;text-anchor:start;dominant-baseline:auto"/>

<text x="340" y="86" font-size="28" font-weight="600" fill="#E8E6E3" text-anchor="middle" style="fill:rgb(232, 230, 227);stroke:none;color:rgb(0, 0, 0);stroke-width:1px;stroke-linecap:butt;stroke-linejoin:miter;opacity:1;font-family:&quot;DM Sans&quot;, &quot;Noto Sans&quot;, system-ui, -apple-system, sans-serif;font-size:28px;font-weight:600;text-anchor:middle;dominant-baseline:auto">How it works</text>

<rect x="70" y="140" width="540" height="130" rx="8" fill="#262421" stroke="#403d38" stroke-width="1" style="fill:rgb(38, 36, 33);stroke:rgb(64, 61, 56);color:rgb(0, 0, 0);stroke-width:1px;stroke-linecap:butt;stroke-linejoin:miter;opacity:1;font-family:&quot;Anthropic Sans&quot;, -apple-system, &quot;system-ui&quot;, &quot;Segoe UI&quot;, sans-serif;font-size:16px;font-weight:400;text-anchor:start;dominant-baseline:auto"/>
<use href="#ic-knight" x="75" y="150" width="110" height="110" style="fill:rgb(0, 0, 0);stroke:none;color:rgb(0, 0, 0);stroke-width:1px;stroke-linecap:butt;stroke-linejoin:miter;opacity:1;font-family:&quot;Anthropic Sans&quot;, -apple-system, &quot;system-ui&quot;, &quot;Segoe UI&quot;, sans-serif;font-size:16px;font-weight:400;text-anchor:start;dominant-baseline:auto"/>
<text x="212" y="190" font-size="13" font-weight="500" fill="#949494" style="fill:rgb(148, 148, 148);stroke:none;color:rgb(0, 0, 0);stroke-width:1px;stroke-linecap:butt;stroke-linejoin:miter;opacity:1;font-family:&quot;DM Sans&quot;, &quot;Noto Sans&quot;, system-ui, -apple-system, sans-serif;font-size:13px;font-weight:500;text-anchor:start;dominant-baseline:auto">01</text>
<text x="212" y="218" font-size="22" font-weight="500" fill="#E8E6E3" style="fill:rgb(232, 230, 227);stroke:none;color:rgb(0, 0, 0);stroke-width:1px;stroke-linecap:butt;stroke-linejoin:miter;opacity:1;font-family:&quot;DM Sans&quot;, &quot;Noto Sans&quot;, system-ui, -apple-system, sans-serif;font-size:22px;font-weight:500;text-anchor:start;dominant-baseline:auto">Connect Lichess</text>
<text x="212" y="242" font-size="14" fill="#949494" style="fill:rgb(148, 148, 148);stroke:none;color:rgb(0, 0, 0);stroke-width:1px;stroke-linecap:butt;stroke-linejoin:miter;opacity:1;font-family:&quot;DM Sans&quot;, &quot;Noto Sans&quot;, system-ui, -apple-system, sans-serif;font-size:14px;font-weight:400;text-anchor:start;dominant-baseline:auto">Sign in with your account</text>

<rect x="70" y="298" width="540" height="130" rx="8" fill="#262421" stroke="#403d38" stroke-width="1" style="fill:rgb(38, 36, 33);stroke:rgb(64, 61, 56);color:rgb(0, 0, 0);stroke-width:1px;stroke-linecap:butt;stroke-linejoin:miter;opacity:1;font-family:&quot;Anthropic Sans&quot;, -apple-system, &quot;system-ui&quot;, &quot;Segoe UI&quot;, sans-serif;font-size:16px;font-weight:400;text-anchor:start;dominant-baseline:auto"/>
<use href="#ic-challenge" x="75" y="308" width="110" height="110" style="fill:rgb(0, 0, 0);stroke:none;color:rgb(0, 0, 0);stroke-width:1px;stroke-linecap:butt;stroke-linejoin:miter;opacity:1;font-family:&quot;Anthropic Sans&quot;, -apple-system, &quot;system-ui&quot;, &quot;Segoe UI&quot;, sans-serif;font-size:16px;font-weight:400;text-anchor:start;dominant-baseline:auto"/>
<text x="212" y="348" font-size="13" font-weight="500" fill="#949494" style="fill:rgb(148, 148, 148);stroke:none;color:rgb(0, 0, 0);stroke-width:1px;stroke-linecap:butt;stroke-linejoin:miter;opacity:1;font-family:&quot;DM Sans&quot;, &quot;Noto Sans&quot;, system-ui, -apple-system, sans-serif;font-size:13px;font-weight:500;text-anchor:start;dominant-baseline:auto">02</text>
<text x="212" y="376" font-size="22" font-weight="500" fill="#E8E6E3" style="fill:rgb(232, 230, 227);stroke:none;color:rgb(0, 0, 0);stroke-width:1px;stroke-linecap:butt;stroke-linejoin:miter;opacity:1;font-family:&quot;DM Sans&quot;, &quot;Noto Sans&quot;, system-ui, -apple-system, sans-serif;font-size:22px;font-weight:500;text-anchor:start;dominant-baseline:auto">Challenge anyone</text>
<text x="212" y="400" font-size="14" fill="#949494" style="fill:rgb(148, 148, 148);stroke:none;color:rgb(0, 0, 0);stroke-width:1px;stroke-linecap:butt;stroke-linejoin:miter;opacity:1;font-family:&quot;DM Sans&quot;, &quot;Noto Sans&quot;, system-ui, -apple-system, sans-serif;font-size:14px;font-weight:400;text-anchor:start;dominant-baseline:auto">Wager a Crown on the game</text>

<rect x="70" y="456" width="540" height="130" rx="8" fill="#262421" stroke="#403d38" stroke-width="1" style="fill:rgb(38, 36, 33);stroke:rgb(64, 61, 56);color:rgb(0, 0, 0);stroke-width:1px;stroke-linecap:butt;stroke-linejoin:miter;opacity:1;font-family:&quot;Anthropic Sans&quot;, -apple-system, &quot;system-ui&quot;, &quot;Segoe UI&quot;, sans-serif;font-size:16px;font-weight:400;text-anchor:start;dominant-baseline:auto"/>
<use href="#ic-play" x="75" y="466" width="110" height="110" style="fill:rgb(0, 0, 0);stroke:none;color:rgb(0, 0, 0);stroke-width:1px;stroke-linecap:butt;stroke-linejoin:miter;opacity:1;font-family:&quot;Anthropic Sans&quot;, -apple-system, &quot;system-ui&quot;, &quot;Segoe UI&quot;, sans-serif;font-size:16px;font-weight:400;text-anchor:start;dominant-baseline:auto"/>
<text x="212" y="506" font-size="13" font-weight="500" fill="#949494" style="fill:rgb(148, 148, 148);stroke:none;color:rgb(0, 0, 0);stroke-width:1px;stroke-linecap:butt;stroke-linejoin:miter;opacity:1;font-family:&quot;DM Sans&quot;, &quot;Noto Sans&quot;, system-ui, -apple-system, sans-serif;font-size:13px;font-weight:500;text-anchor:start;dominant-baseline:auto">03</text>
<text x="212" y="534" font-size="22" font-weight="500" fill="#E8E6E3" style="fill:rgb(232, 230, 227);stroke:none;color:rgb(0, 0, 0);stroke-width:1px;stroke-linecap:butt;stroke-linejoin:miter;opacity:1;font-family:&quot;DM Sans&quot;, &quot;Noto Sans&quot;, system-ui, -apple-system, sans-serif;font-size:22px;font-weight:500;text-anchor:start;dominant-baseline:auto">Play on Lichess</text>
<text x="212" y="558" font-size="14" fill="#949494" style="fill:rgb(148, 148, 148);stroke:none;color:rgb(0, 0, 0);stroke-width:1px;stroke-linecap:butt;stroke-linejoin:miter;opacity:1;font-family:&quot;DM Sans&quot;, &quot;Noto Sans&quot;, system-ui, -apple-system, sans-serif;font-size:14px;font-weight:400;text-anchor:start;dominant-baseline:auto">Same board, same rules</text>

<rect x="70" y="614" width="540" height="130" rx="8" fill="#262421" stroke="#403d38" stroke-width="1" style="fill:rgb(38, 36, 33);stroke:rgb(64, 61, 56);color:rgb(0, 0, 0);stroke-width:1px;stroke-linecap:butt;stroke-linejoin:miter;opacity:1;font-family:&quot;Anthropic Sans&quot;, -apple-system, &quot;system-ui&quot;, &quot;Segoe UI&quot;, sans-serif;font-size:16px;font-weight:400;text-anchor:start;dominant-baseline:auto"/>
<use href="#ic-win" x="75" y="624" width="110" height="110" style="fill:rgb(0, 0, 0);stroke:none;color:rgb(0, 0, 0);stroke-width:1px;stroke-linecap:butt;stroke-linejoin:miter;opacity:1;font-family:&quot;Anthropic Sans&quot;, -apple-system, &quot;system-ui&quot;, &quot;Segoe UI&quot;, sans-serif;font-size:16px;font-weight:400;text-anchor:start;dominant-baseline:auto"/>
<text x="212" y="664" font-size="13" font-weight="500" fill="#949494" style="fill:rgb(148, 148, 148);stroke:none;color:rgb(0, 0, 0);stroke-width:1px;stroke-linecap:butt;stroke-linejoin:miter;opacity:1;font-family:&quot;DM Sans&quot;, &quot;Noto Sans&quot;, system-ui, -apple-system, sans-serif;font-size:13px;font-weight:500;text-anchor:start;dominant-baseline:auto">04</text>
<text x="212" y="692" font-size="22" font-weight="500" fill="#E8E6E3" style="fill:rgb(232, 230, 227);stroke:none;color:rgb(0, 0, 0);stroke-width:1px;stroke-linecap:butt;stroke-linejoin:miter;opacity:1;font-family:&quot;DM Sans&quot;, &quot;Noto Sans&quot;, system-ui, -apple-system, sans-serif;font-size:22px;font-weight:500;text-anchor:start;dominant-baseline:auto">Win their Crowns</text>
<text x="212" y="716" font-size="14" fill="#949494" style="fill:rgb(148, 148, 148);stroke:none;color:rgb(0, 0, 0);stroke-width:1px;stroke-linecap:butt;stroke-linejoin:miter;opacity:1;font-family:&quot;DM Sans&quot;, &quot;Noto Sans&quot;, system-ui, -apple-system, sans-serif;font-size:14px;font-weight:400;text-anchor:start;dominant-baseline:auto">Climb the leaderboard</text>

<path d="M124 278 L130 285 L136 278" fill="none" stroke="#949494" stroke-width="1.8" stroke-linecap="round" stroke-linejoin="round" style="fill:none;stroke:rgb(148, 148, 148);color:rgb(0, 0, 0);stroke-width:1.8px;stroke-linecap:round;stroke-linejoin:round;opacity:1;font-family:&quot;Anthropic Sans&quot;, -apple-system, &quot;system-ui&quot;, &quot;Segoe UI&quot;, sans-serif;font-size:16px;font-weight:400;text-anchor:start;dominant-baseline:auto"/>
<path d="M124 436 L130 443 L136 436" fill="none" stroke="#949494" stroke-width="1.8" stroke-linecap="round" stroke-linejoin="round" style="fill:none;stroke:rgb(148, 148, 148);color:rgb(0, 0, 0);stroke-width:1.8px;stroke-linecap:round;stroke-linejoin:round;opacity:1;font-family:&quot;Anthropic Sans&quot;, -apple-system, &quot;system-ui&quot;, &quot;Segoe UI&quot;, sans-serif;font-size:16px;font-weight:400;text-anchor:start;dominant-baseline:auto"/>
<path d="M124 594 L130 601 L136 594" fill="none" stroke="#949494" stroke-width="1.8" stroke-linecap="round" stroke-linejoin="round" style="fill:none;stroke:rgb(148, 148, 148);color:rgb(0, 0, 0);stroke-width:1.8px;stroke-linecap:round;stroke-linejoin:round;opacity:1;font-family:&quot;Anthropic Sans&quot;, -apple-system, &quot;system-ui&quot;, &quot;Segoe UI&quot;, sans-serif;font-size:16px;font-weight:400;text-anchor:start;dominant-baseline:auto"/>

<text x="340" y="800" font-size="14" fill="#949494" text-anchor="middle" style="fill:rgb(148, 148, 148);stroke:none;color:rgb(0, 0, 0);stroke-width:1px;stroke-linecap:butt;stroke-linejoin:miter;opacity:1;font-family:&quot;DM Sans&quot;, &quot;Noto Sans&quot;, system-ui, -apple-system, sans-serif;font-size:14px;font-weight:400;text-anchor:middle;dominant-baseline:auto">Crowns are points, not currency — no gambling, no tokens.</text>
</svg>